<svg xmlns="http://www.w3.org/2000/svg" width="688.9867553710938" height="533.969482421875" viewBox="-270.45928955078125 -365.3541564941406 688.9867553710938 533.969482421875"><title>Neo4j Graph Visualization</title><desc>Created using Neo4j (http://www.neo4j.com/)</desc><g class="layer relationships"><g class="relationship" transform="translate(150.42262269662197 -114.18012636250745) rotate(481.92734229970665)"><path class="outline" fill="#A5ABB6" stroke="none" d="M 40 0.5 L 113.7306219490107 0.5 L 113.7306219490107 -0.5 L 40 -0.5 Z M 160.6290594490107 0.5 L 234.3596813980214 0.5 L 234.3596813980214 3.5 L 241.3596813980214 0 L 234.3596813980214 -3.5 L 234.3596813980214 -0.5 L 160.6290594490107 -0.5 Z"/><text text-anchor="middle" pointer-events="none" font-size="8px" fill="#000000" x="137.1798406990107" y="3" transform="rotate(180 137.1798406990107 0)" font-family="sans-serif">RECEIVED</text></g><g class="relationship" transform="translate(150.42262269662197 -114.18012636250745) rotate(196.18416924136)"><path class="outline" fill="#A5ABB6" stroke="none" d="M 40 0.5 L 138.17459742522087 0.5 L 138.17459742522087 -0.5 L 40 -0.5 Z M 234.72147242522087 0.5 L 332.89606985044173 0.5 L 332.89606985044173 3.5 L 339.89606985044173 0 L 332.89606985044173 -3.5 L 332.89606985044173 -0.5 L 234.72147242522087 -0.5 Z"/><text text-anchor="middle" pointer-events="none" font-size="8px" fill="#000000" x="186.44803492522087" y="3" transform="rotate(180 186.44803492522087 0)" font-family="sans-serif">IS_PRIMARY_SUSPECT</text></g><g class="relationship" transform="translate(150.42262269662197 -114.18012636250745) rotate(212.98730280219064)"><path class="outline" fill="#A5ABB6" stroke="none" d="M 40 0.5 L 148.2763911392887 0.5 L 148.2763911392887 -0.5 L 40 -0.5 Z M 225.2412348892887 0.5 L 333.5176260285774 0.5 L 333.5176260285774 3.5 L 340.5176260285774 0 L 333.5176260285774 -3.5 L 333.5176260285774 -0.5 L 225.2412348892887 -0.5 Z"/><text text-anchor="middle" pointer-events="none" font-size="8px" fill="#000000" x="186.7588130142887" y="3" transform="rotate(180 186.7588130142887 0)" font-family="sans-serif">IS_CONCOMITANT</text></g><g class="relationship" transform="translate(150.42262269662197 -114.18012636250745) rotate(534.8709151651892)"><path class="outline" fill="#A5ABB6" stroke="none" d="M 40 0.5 L 130.3118253117985 0.5 L 130.3118253117985 -0.5 L 40 -0.5 Z M 241.0852628117985 0.5 L 331.397088123597 0.5 L 331.397088123597 3.5 L 338.397088123597 0 L 331.397088123597 -3.5 L 331.397088123597 -0.5 L 241.0852628117985 -0.5 Z"/><text text-anchor="middle" pointer-events="none" font-size="8px" fill="#000000" x="185.6985440617985" y="3" transform="rotate(180 185.6985440617985 0)" font-family="sans-serif">IS_SECONDARY_SUSPECT</text></g><g class="relationship" transform="translate(150.42262269662197 -114.18012636250745) rotate(516.4947768342158)"><path class="outline" fill="#A5ABB6" stroke="none" d="M 40 0.5 L 131.77043828571283 0.5 L 131.77043828571283 -0.5 L 40 -0.5 Z M 242.54387578571283 0.5 L 334.31431407142566 0.5 L 334.31431407142566 3.5 L 341.31431407142566 0 L 334.31431407142566 -3.5 L 334.31431407142566 -0.5 L 242.54387578571283 -0.5 Z"/><text text-anchor="middle" pointer-events="none" font-size="8px" fill="#000000" x="187.15715703571283" y="3" transform="rotate(180 187.15715703571283 0)" font-family="sans-serif">IS_SECONDARY_SUSPECT</text></g><g class="relationship" transform="translate(150.42262269662197 -114.18012636250745) rotate(447.5751203039756)"><path class="outline" fill="#A5ABB6" stroke="none" d="M 40 0.5 L 72.5688045510471 0.5 L 72.5688045510471 -0.5 L 40 -0.5 Z M 137.9945858010471 0.5 L 170.5633903520942 0.5 L 170.5633903520942 3.5 L 177.5633903520942 0 L 170.5633903520942 -3.5 L 170.5633903520942 -0.5 L 137.9945858010471 -0.5 Z"/><text text-anchor="middle" pointer-events="none" font-size="8px" fill="#000000" x="105.2816951760471" y="3" font-family="sans-serif">REPORTED_BY</text></g><g class="relationship" transform="translate(150.42262269662197 -114.18012636250745) rotate(316.4827623644512)"><path class="outline" fill="#A5ABB6" stroke="none" d="M 40 0.5 L 77.7231438542385 0.5 L 77.7231438542385 -0.5 L 40 -0.5 Z M 145.95751885423851 0.5 L 183.680662708477 0.5 L 183.680662708477 3.5 L 190.680662708477 0 L 183.680662708477 -3.5 L 183.680662708477 -0.5 L 145.95751885423851 -0.5 Z"/><text text-anchor="middle" pointer-events="none" font-size="8px" fill="#000000" x="111.8403313542385" y="3" font-family="sans-serif">HAS_REACTION</text></g><g class="relationship" transform="translate(150.42262269662197 -114.18012636250745) rotate(290.01872269300037)"><path class="outline" fill="#A5ABB6" stroke="none" d="M 40 0.5 L 66.96602412935712 0.5 L 66.96602412935712 -0.5 L 40 -0.5 Z M 135.20039912935712 0.5 L 162.16642325871425 0.5 L 162.16642325871425 3.5 L 169.16642325871425 0 L 162.16642325871425 -3.5 L 162.16642325871425 -0.5 L 135.20039912935712 -0.5 Z"/><text text-anchor="middle" pointer-events="none" font-size="8px" fill="#000000" x="101.08321162935712" y="3" font-family="sans-serif">HAS_REACTION</text></g><g class="relationship" transform="translate(150.42262269662197 -114.18012636250745) rotate(340.4120728915092)"><path class="outline" fill="#A5ABB6" stroke="none" d="M 40 0.5 L 73.15921844644382 0.5 L 73.15921844644382 -0.5 L 40 -0.5 Z M 141.39359344644382 0.5 L 174.55281189288763 0.5 L 174.55281189288763 3.5 L 181.55281189288763 0 L 174.55281189288763 -3.5 L 174.55281189288763 -0.5 L 141.39359344644382 -0.5 Z"/><text text-anchor="middle" pointer-events="none" font-size="8px" fill="#000000" x="107.27640594644382" y="3" font-family="sans-serif">HAS_REACTION</text></g><g class="relationship" transform="translate(150.42262269662197 -114.18012636250745) rotate(365.4411064491446)"><path class="outline" fill="#A5ABB6" stroke="none" d="M 40 0.5 L 78.79397230295974 0.5 L 78.79397230295974 -0.5 L 40 -0.5 Z M 139.32522230295973 0.5 L 178.1191946059195 0.5 L 178.1191946059195 3.5 L 185.1191946059195 0 L 178.1191946059195 -3.5 L 178.1191946059195 -0.5 L 139.32522230295973 -0.5 Z"/><text text-anchor="middle" pointer-events="none" font-size="8px" fill="#000000" x="109.05959730295974" y="3" font-family="sans-serif">RESULTED_IN</text></g><g class="relationship" transform="translate(150.42262269662197 -114.18012636250745) rotate(264.7022112213898)"><path class="outline" fill="#A5ABB6" stroke="none" d="M 40 0.5 L 67.09070485045923 0.5 L 67.09070485045923 -0.5 L 40 -0.5 Z M 127.62195485045923 0.5 L 154.71265970091846 0.5 L 154.71265970091846 3.5 L 161.71265970091846 0 L 154.71265970091846 -3.5 L 154.71265970091846 -0.5 L 127.62195485045923 -0.5 Z"/><text text-anchor="middle" pointer-events="none" font-size="8px" fill="#000000" x="97.35632985045923" y="3" transform="rotate(180 97.35632985045923 0)" font-family="sans-serif">RESULTED_IN</text></g><g class="relationship" transform="translate(150.42262269662197 -114.18012636250745) rotate(388.4539182277891)"><path class="outline" fill="#A5ABB6" stroke="none" d="M 40 0.5 L 81.4314344636798 0.5 L 81.4314344636798 -0.5 L 40 -0.5 Z M 144.3415907136798 0.5 L 185.7730251773596 0.5 L 185.7730251773596 3.5 L 192.7730251773596 0 L 185.7730251773596 -3.5 L 185.7730251773596 -0.5 L 144.3415907136798 -0.5 Z"/><text text-anchor="middle" pointer-events="none" font-size="8px" fill="#000000" x="112.8865125886798" y="3" font-family="sans-serif">FALLS_UNDER</text></g><g class="relationship" transform="translate(1.6274079446873202 124.61529734431684) rotate(203.34873473308255)"><path class="outline" fill="#A5ABB6" stroke="none" d="M 40 0.5 L 76.89232949686426 0.5 L 76.89232949686426 -0.5 L 40 -0.5 Z M 134.90404824686425 0.5 L 171.79637774372853 0.5 L 171.79637774372853 3.5 L 178.79637774372853 0 L 171.79637774372853 -3.5 L 171.79637774372853 -0.5 L 134.90404824686425 -0.5 Z"/><text text-anchor="middle" pointer-events="none" font-size="8px" fill="#000000" x="105.89818887186426" y="3" transform="rotate(180 105.89818887186426 0)" font-family="sans-serif">PRESCRIBED</text></g><g class="relationship" transform="translate(1.6274079446873202 124.61529734431684) rotate(237.92063110015437)"><path class="outline" fill="#A5ABB6" stroke="none" d="M 40 0.5 L 170.89132721535094 0.5 L 170.89132721535094 -0.5 L 40 -0.5 Z M 228.90304596535094 0.5 L 359.7943731807019 0.5 L 359.7943731807019 3.5 L 366.7943731807019 0 L 359.7943731807019 -3.5 L 359.7943731807019 -0.5 L 228.90304596535094 -0.5 Z"/><text text-anchor="middle" pointer-events="none" font-size="8px" fill="#000000" x="199.89718659035094" y="3" transform="rotate(180 199.89718659035094 0)" font-family="sans-serif">PRESCRIBED</text></g><g class="relationship" transform="translate(1.6274079446873202 124.61529734431684) rotate(221.9439835314883)"><path class="outline" fill="#A5ABB6" stroke="none" d="M 40 0.5 L 120.81970603584179 0.5 L 120.81970603584179 -0.5 L 40 -0.5 Z M 178.8314247858418 0.5 L 259.6511308216836 0.5 L 259.6511308216836 3.5 L 266.6511308216836 0 L 259.6511308216836 -3.5 L 259.6511308216836 -0.5 L 178.8314247858418 -0.5 Z"/><text text-anchor="middle" pointer-events="none" font-size="8px" fill="#000000" x="149.8255654108418" y="3" transform="rotate(180 149.8255654108418 0)" font-family="sans-serif">PRESCRIBED</text></g><g class="relationship" transform="translate(277.08374430320606 65.04662350521531) rotate(234.75081487134594)"><path class="outline" fill="#A5ABB6" stroke="none" d="M 40 0.5 L 77.22902818035361 0.5 L 77.22902818035361 -0.5 L 40 -0.5 Z M 135.23684068035362 0.5 L 172.46586886070722 0.5 L 172.46586886070722 3.5 L 179.46586886070722 0 L 172.46586886070722 -3.5 L 172.46586886070722 -0.5 L 135.23684068035362 -0.5 Z"/><text text-anchor="middle" pointer-events="none" font-size="8px" fill="#000000" x="106.23293443035361" y="3" transform="rotate(180 106.23293443035361 0)" font-family="sans-serif">REGISTERED</text></g></g><g class="layer nodes"><g class="node" aria-label="graph-node7176" transform="translate(-214.41844472883642,-220.0669499415714)"><circle class="outline" cx="0" cy="0" r="40" fill="#4C8EDA" stroke="#2870c2" stroke-width="2px"/><text class="caption" text-anchor="middle" pointer-events="none" x="0" y="5" font-size="10px" fill="#FFFFFF" font-family="sans-serif"> LENALIDOMIDE</text></g><g class="node" aria-label="graph-node7190" transform="translate(-226.45929235230398,-80.35146381916485)"><circle class="outline" cx="0" cy="0" r="40" fill="#4C8EDA" stroke="#2870c2" stroke-width="2px"/><text class="caption" text-anchor="middle" pointer-events="none" x="0" y="5" font-size="10px" fill="#FFFFFF" font-family="sans-serif"> BORTEZOMIB</text></g><g class="node" aria-label="graph-node7177" transform="translate(-199.2516480958111,37.900478783389005)"><circle class="outline" cx="0" cy="0" r="40" fill="#4C8EDA" stroke="#2870c2" stroke-width="2px"/><text class="caption" text-anchor="middle" pointer-events="none" x="0" y="5" font-size="10px" fill="#FFFFFF" font-family="sans-serif"> DEXAMETHAS…</text></g><g class="node" aria-label="graph-node4449" transform="translate(374.5274732205461,-92.83375075287574)"><circle class="outline" cx="0" cy="0" r="40" fill="#F16667" stroke="#eb2728" stroke-width="2px"/><text class="caption" text-anchor="middle" pointer-events="none" x="0" y="-5" font-size="10px" fill="#FFFFFF" font-family="sans-serif"> Hospitalization -</text><text class="caption" text-anchor="middle" pointer-events="none" x="0" y="5" font-size="10px" fill="#FFFFFF" font-family="sans-serif"> Initial or</text><text class="caption" text-anchor="middle" pointer-events="none" x="0" y="15" font-size="10px" fill="#FFFFFF" font-family="sans-serif"> Prolonged</text></g><g class="node" aria-label="graph-node4520" transform="translate(317.70468318790313,-273.0205506423912)"><circle class="outline" cx="0" cy="0" r="40" fill="#ECB5C9" stroke="#da7298" stroke-width="2px"/><text class="caption" text-anchor="middle" pointer-events="none" x="0" y="0" font-size="10px" fill="#2A2C34" font-family="sans-serif"> Pericardial</text><text class="caption" text-anchor="middle" pointer-events="none" x="0" y="10" font-size="10px" fill="#2A2C34" font-family="sans-serif"> effusion</text></g><g class="node" aria-label="graph-node9680" transform="translate(1.6274079446873202,124.61529734431684)"><circle class="outline" cx="0" cy="0" r="40" fill="#D9C8AE" stroke="#c0a378" stroke-width="2px"/><text class="caption" text-anchor="middle" pointer-events="none" x="0" y="5" font-size="10px" fill="#2A2C34" font-family="sans-serif"> 111791005</text></g><g class="node" aria-label="graph-node143" transform="translate(355.07680539493686,-3.2750013488073435)"><circle class="outline" cx="0" cy="0" r="40" fill="#569480" stroke="#447666" stroke-width="2px"/><text class="caption" text-anchor="middle" pointer-events="none" x="0" y="5" font-size="10px" fill="#FFFFFF" font-family="sans-serif"> Elderly</text></g><g class="node" aria-label="graph-node7155" transform="translate(159.6276212836562,103.18844731480775)"><circle class="outline" cx="0" cy="0" r="40" fill="#8DCC93" stroke="#5db665" stroke-width="2px"/><text class="caption" text-anchor="middle" pointer-events="none" x="0" y="0" font-size="10px" fill="#2A2C34" font-family="sans-serif"> Health</text><text class="caption" text-anchor="middle" pointer-events="none" x="0" y="10" font-size="10px" fill="#2A2C34" font-family="sans-serif"> Professional</text></g><g class="node" aria-label="graph-node130" transform="translate(277.08374430320606,65.04662350521531)"><circle class="outline" cx="0" cy="0" r="40" fill="#F16667" stroke="#eb2728" stroke-width="2px"/><text class="caption" text-anchor="middle" pointer-events="none" x="0" y="5" font-size="10px" fill="#FFFFFF" font-family="sans-serif"> CELGENE</text></g><g class="node" aria-label="graph-node4519" transform="translate(222.0259768005426,-310.7088832911365)"><circle class="outline" cx="0" cy="0" r="40" fill="#ECB5C9" stroke="#da7298" stroke-width="2px"/><text class="caption" text-anchor="middle" pointer-events="none" x="0" y="5" font-size="10px" fill="#2A2C34" font-family="sans-serif"> Anaemia</text></g><g class="node" aria-label="graph-node4521" transform="translate(359.15375583709056,-188.45638445041357)"><circle class="outline" cx="0" cy="0" r="40" fill="#ECB5C9" stroke="#da7298" stroke-width="2px"/><text class="caption" text-anchor="middle" pointer-events="none" x="0" y="5" font-size="10px" fill="#2A2C34" font-family="sans-serif"> Pleural effusion</text></g><g class="node" aria-label="graph-node7202" transform="translate(-168.75223007739714,-321.3541524253987)"><circle class="outline" cx="0" cy="0" r="40" fill="#4C8EDA" stroke="#2870c2" stroke-width="2px"/><text class="caption" text-anchor="middle" pointer-events="none" x="0" y="5" font-size="10px" fill="#FFFFFF" font-family="sans-serif"> HYDROCODO…</text></g><g class="node" aria-label="graph-node4450" transform="translate(131.79805727208972,-315.0311224923894)"><circle class="outline" cx="0" cy="0" r="40" fill="#F16667" stroke="#eb2728" stroke-width="2px"/><text class="caption" text-anchor="middle" pointer-events="none" x="0" y="-5" font-size="10px" fill="#FFFFFF" font-family="sans-serif"> Other Serious</text><text class="caption" text-anchor="middle" pointer-events="none" x="0" y="5" font-size="10px" fill="#FFFFFF" font-family="sans-serif"> (Important</text><text class="caption" text-anchor="middle" pointer-events="none" x="0" y="15" font-size="10px" fill="#FFFFFF" font-family="sans-serif"> Medical Event)</text></g><g class="node" aria-label="graph-node30" transform="translate(150.42262269662197,-114.18012636250745)"><circle class="outline" cx="0" cy="0" r="40" fill="#FFC454" stroke="#d7a013" stroke-width="2px"/><text class="caption" text-anchor="middle" pointer-events="none" x="0" y="5" font-size="10px" fill="#2A2C34" font-family="sans-serif"> M</text></g></g></svg>