<svg xmlns="http://www.w3.org/2000/svg" width="762.615478515625" height="603.3491821289062" viewBox="-477.42999267578125 -172.68821716308594 762.615478515625 603.3491821289062"><title>Neo4j Graph Visualization</title><desc>Created using Neo4j (http://www.neo4j.com/)</desc><g class="layer relationships"><g class="relationship" transform="translate(-31.33261775970459 93.91173003532616) rotate(444.46501116694793)"><path class="outline" fill="#A5ABB6" stroke="none" d="M 38.50762352901147,10.835724717245364 L 38.766442574113995,9.869798890956295 A 414.41516596293 414.41516596293 0 0 0 114.14938241324435,22.762946011665463 L 114.07246534961003,23.759983506106778 A 415.41516596293 415.41516596293 0 0 1 38.50762352901147,10.835724717245364 Z M 172.9874113304749,24.11473441546451 L 172.9225065474169,23.116842953863454 A 414.41516596293 414.41516596293 0 0 0 248.4552443745904,11.132420656662596 L 247.71373967580402,8.2255029107197 L 255.36163656492155,9.886729317151557 L 249.44391730630556,15.00831098458646 L 248.7024126075192,12.101393238643563 A 415.41516596293 415.41516596293 0 0 1 172.9874113304749,24.11473441546451"/><text text-anchor="middle" pointer-events="none" font-size="8px" fill="#000000" x="143.52665202055098" y="27.483131586619038" font-family="sans-serif">OCCURED_IN</text></g><g class="relationship" transform="translate(-31.33261775970459 93.91173003532616) rotate(444.46501116694793)"><path class="outline" fill="#A5ABB6" stroke="none" d="M 38.50762352901147,-10.835724717245364 L 38.766442574113995,-9.869798890956295 A 414.41516596293 414.41516596293 0 0 1 112.22808179480292,-22.610230910544374 L 112.14652855764928,-23.606899897475216 A 415.41516596293 415.41516596293 0 0 0 38.50762352901147,-10.835724717245364 Z M 174.91505195956697,-23.984854767587535 L 174.84550690146116,-22.987275956218184 A 414.41516596293 414.41516596293 0 0 1 248.4552443745904,-11.132420656662596 L 247.71373967580402,-8.2255029107197 L 255.36163656492155,-9.886729317151557 L 249.44391730630556,-15.00831098458646 L 248.7024126075192,-12.101393238643563 A 415.41516596293 415.41516596293 0 0 0 174.91505195956697,-23.984854767587535"/><text text-anchor="middle" pointer-events="none" font-size="8px" fill="#000000" x="143.5266520205509" y="-21.483131586619038" font-family="sans-serif">REPORTED_IN</text></g><g class="relationship" transform="translate(156.58486380952377 339.8994946697952) rotate(232.6226978969853)"><path class="outline" fill="#A5ABB6" stroke="none" d="M 40 0.5 L 122.27251332771235 0.5 L 122.27251332771235 -0.5 L 40 -0.5 Z M 180.28032582771235 0.5 L 262.5528391554247 0.5 L 262.5528391554247 3.5 L 269.5528391554247 0 L 262.5528391554247 -3.5 L 262.5528391554247 -0.5 L 180.28032582771235 -0.5 Z"/><text text-anchor="middle" pointer-events="none" font-size="8px" fill="#000000" x="151.27641957771235" y="3" transform="rotate(180 151.27641957771235 0)" font-family="sans-serif">REGISTSRED</text></g><g class="relationship" transform="translate(-31.33261775970459 93.91173003532616) rotate(282.52940830917686)"><path class="outline" fill="#A5ABB6" stroke="none" d="M 40 0.5 L 79.06019029764882 0.5 L 79.06019029764882 -0.5 L 40 -0.5 Z M 141.97034654764883 0.5 L 181.03053684529763 0.5 L 181.03053684529763 3.5 L 188.03053684529763 0 L 181.03053684529763 -3.5 L 181.03053684529763 -0.5 L 141.97034654764883 -0.5 Z"/><text text-anchor="middle" pointer-events="none" font-size="8px" fill="#000000" x="110.51526842264882" y="3" font-family="sans-serif">FALLS_UNDER</text></g><g class="relationship" transform="translate(-31.33261775970459 93.91173003532616) rotate(387.1604626697573)"><path class="outline" fill="#A5ABB6" stroke="none" d="M 40 0.5 L 99.85345967577047 0.5 L 99.85345967577047 -0.5 L 40 -0.5 Z M 160.38470967577047 0.5 L 220.23816935154093 0.5 L 220.23816935154093 3.5 L 227.23816935154093 0 L 220.23816935154093 -3.5 L 220.23816935154093 -0.5 L 160.38470967577047 -0.5 Z"/><text text-anchor="middle" pointer-events="none" font-size="8px" fill="#000000" x="130.11908467577047" y="3" font-family="sans-serif">RESULTED_IN</text></g><g class="relationship" transform="translate(-31.33261775970459 93.91173003532616) rotate(366.19145240941083)"><path class="outline" fill="#A5ABB6" stroke="none" d="M 40 0.5 L 96.46421535649873 0.5 L 96.46421535649873 -0.5 L 40 -0.5 Z M 164.69859035649873 0.5 L 221.16280571299745 0.5 L 221.16280571299745 3.5 L 228.16280571299745 0 L 221.16280571299745 -3.5 L 221.16280571299745 -0.5 L 164.69859035649873 -0.5 Z"/><text text-anchor="middle" pointer-events="none" font-size="8px" fill="#000000" x="130.58140285649873" y="3" font-family="sans-serif">HAS_REACTION</text></g><g class="relationship" transform="translate(-31.33261775970459 93.91173003532616) rotate(346.75255772923026)"><path class="outline" fill="#A5ABB6" stroke="none" d="M 40 0.5 L 102.36690782348322 0.5 L 102.36690782348322 -0.5 L 40 -0.5 Z M 170.60128282348322 0.5 L 232.96819064696643 0.5 L 232.96819064696643 3.5 L 239.96819064696643 0 L 232.96819064696643 -3.5 L 232.96819064696643 -0.5 L 170.60128282348322 -0.5 Z"/><text text-anchor="middle" pointer-events="none" font-size="8px" fill="#000000" x="136.48409532348322" y="3" font-family="sans-serif">HAS_REACTION</text></g><g class="relationship" transform="translate(-31.33261775970459 93.91173003532616) rotate(328.02837167526525)"><path class="outline" fill="#A5ABB6" stroke="none" d="M 40 0.5 L 98.76744806256994 0.5 L 98.76744806256994 -0.5 L 40 -0.5 Z M 167.00182306256994 0.5 L 225.76927112513988 0.5 L 225.76927112513988 3.5 L 232.76927112513988 0 L 225.76927112513988 -3.5 L 225.76927112513988 -0.5 L 167.00182306256994 -0.5 Z"/><text text-anchor="middle" pointer-events="none" font-size="8px" fill="#000000" x="132.88463556256994" y="3" font-family="sans-serif">HAS_REACTION</text></g><g class="relationship" transform="translate(-31.33261775970459 93.91173003532616) rotate(308.2132488326067)"><path class="outline" fill="#A5ABB6" stroke="none" d="M 40 0.5 L 87.34100148339314 0.5 L 87.34100148339314 -0.5 L 40 -0.5 Z M 152.76678273339314 0.5 L 200.10778421678629 0.5 L 200.10778421678629 3.5 L 207.10778421678629 0 L 200.10778421678629 -3.5 L 200.10778421678629 -0.5 L 152.76678273339314 -0.5 Z"/><text text-anchor="middle" pointer-events="none" font-size="8px" fill="#000000" x="120.05389210839314" y="3" font-family="sans-serif">REPORTED_BY</text></g><g class="relationship" transform="translate(-31.33261775970459 93.91173003532616) rotate(190.16891920530225)"><path class="outline" fill="#A5ABB6" stroke="none" d="M 40 0.5 L 162.2748420658223 0.5 L 162.2748420658223 -0.5 L 40 -0.5 Z M 239.2396858158223 0.5 L 361.5145278816446 0.5 L 361.5145278816446 3.5 L 368.5145278816446 0 L 361.5145278816446 -3.5 L 361.5145278816446 -0.5 L 239.2396858158223 -0.5 Z"/><text text-anchor="middle" pointer-events="none" font-size="8px" fill="#000000" x="200.7572639408223" y="3" transform="rotate(180 200.7572639408223 0)" font-family="sans-serif">IS_CONCOMITANT</text></g><g class="relationship" transform="translate(-31.33261775970459 93.91173003532616) rotate(531.9928616664199)"><path class="outline" fill="#A5ABB6" stroke="none" d="M 40 0.5 L 148.78359954002852 0.5 L 148.78359954002852 -0.5 L 40 -0.5 Z M 245.33047454002852 0.5 L 354.11407408005704 0.5 L 354.11407408005704 3.5 L 361.11407408005704 0 L 354.11407408005704 -3.5 L 354.11407408005704 -0.5 L 245.33047454002852 -0.5 Z"/><text text-anchor="middle" pointer-events="none" font-size="8px" fill="#000000" x="197.05703704002852" y="3" transform="rotate(180 197.05703704002852 0)" font-family="sans-serif">IS_PRIMARY_SUSPECT</text></g><g class="relationship" transform="translate(-31.33261775970459 93.91173003532616) rotate(512.3918720698867)"><path class="outline" fill="#A5ABB6" stroke="none" d="M 40 0.5 L 150.7612200684943 0.5 L 150.7612200684943 -0.5 L 40 -0.5 Z M 261.5346575684943 0.5 L 372.2958776369886 0.5 L 372.2958776369886 3.5 L 379.2958776369886 0 L 372.2958776369886 -3.5 L 372.2958776369886 -0.5 L 261.5346575684943 -0.5 Z"/><text text-anchor="middle" pointer-events="none" font-size="8px" fill="#000000" x="206.1479388184943" y="3" transform="rotate(180 206.1479388184943 0)" font-family="sans-serif">IS_SECONDARY_SUSPECT</text></g><g class="relationship" transform="translate(-31.33261775970459 93.91173003532616) rotate(212.16383244949634)"><path class="outline" fill="#A5ABB6" stroke="none" d="M 40 0.5 L 142.81163619348294 0.5 L 142.81163619348294 -0.5 L 40 -0.5 Z M 219.77647994348294 0.5 L 322.5881161369659 0.5 L 322.5881161369659 3.5 L 329.5881161369659 0 L 322.5881161369659 -3.5 L 322.5881161369659 -0.5 L 219.77647994348294 -0.5 Z"/><text text-anchor="middle" pointer-events="none" font-size="8px" fill="#000000" x="181.29405806848294" y="3" transform="rotate(180 181.29405806848294 0)" font-family="sans-serif">IS_CONCOMITANT</text></g><g class="relationship" transform="translate(-31.33261775970459 93.91173003532616) rotate(493.50036960412467)"><path class="outline" fill="#A5ABB6" stroke="none" d="M 40 0.5 L 118.36033564770256 0.5 L 118.36033564770256 -0.5 L 40 -0.5 Z M 165.25877314770256 0.5 L 243.6191087954051 0.5 L 243.6191087954051 3.5 L 250.6191087954051 0 L 243.6191087954051 -3.5 L 243.6191087954051 -0.5 L 165.25877314770256 -0.5 Z"/><text text-anchor="middle" pointer-events="none" font-size="8px" fill="#000000" x="141.80955439770256" y="3" transform="rotate(180 141.80955439770256 0)" font-family="sans-serif">RECEIVED</text></g><g class="relationship" transform="translate(-231.38297095878704 304.71809279973104) rotate(185.49391500184367)"><path class="outline" fill="#A5ABB6" stroke="none" d="M 40 0.5 L 53.64166696965961 0.5 L 53.64166696965961 -0.5 L 40 -0.5 Z M 111.65338571965961 0.5 L 125.29505268931922 0.5 L 125.29505268931922 3.5 L 132.29505268931922 0 L 125.29505268931922 -3.5 L 125.29505268931922 -0.5 L 111.65338571965961 -0.5 Z"/><text text-anchor="middle" pointer-events="none" font-size="8px" fill="#000000" x="82.64752634465961" y="3" transform="rotate(180 82.64752634465961 0)" font-family="sans-serif">PRESCRIBED</text></g><g class="relationship" transform="translate(-231.38297095878704 304.71809279973104) rotate(218.16199537898035)"><path class="outline" fill="#A5ABB6" stroke="none" d="M 40 0.5 L 92.86705448984813 0.5 L 92.86705448984813 -0.5 L 40 -0.5 Z M 150.87877323984813 0.5 L 203.74582772969626 0.5 L 203.74582772969626 3.5 L 210.74582772969626 0 L 203.74582772969626 -3.5 L 203.74582772969626 -0.5 L 150.87877323984813 -0.5 Z"/><text text-anchor="middle" pointer-events="none" font-size="8px" fill="#000000" x="121.87291386484813" y="3" transform="rotate(180 121.87291386484813 0)" font-family="sans-serif">PRESCRIBED</text></g></g><g class="layer nodes"><g class="node" transform="translate(-31.33261775970459,93.91173003532616)"><circle class="outline" cx="0" cy="0" r="40" fill="#F16667" stroke="#eb2728" stroke-width="2px"/><text text-anchor="middle" pointer-events="none" font-family="sans-serif" dy="2.5" font-size="40" fill="#FFFFFF"/><text text-anchor="middle" pointer-events="none" x="0" y="5" font-size="10px" fill="#FFFFFF" font-family="sans-serif"> M</text></g><g class="node" transform="translate(-2.9636347565700163,386.660927748297)"><circle class="outline" cx="0" cy="0" r="40" fill="#57C7E3" stroke="#23b3d7" stroke-width="2px"/><text text-anchor="middle" pointer-events="none" font-family="sans-serif" dy="2.5" font-size="40" fill="#2A2C34"/><text text-anchor="middle" pointer-events="none" x="0" y="5" font-size="10px" fill="#2A2C34" font-family="sans-serif"> Germany</text></g><g class="node" transform="translate(156.58486380952377,339.8994946697952)"><circle class="outline" cx="0" cy="0" r="40" fill="#4C8EDA" stroke="#2870c2" stroke-width="2px"/><text text-anchor="middle" pointer-events="none" font-family="sans-serif" dy="2.5" font-size="40" fill="#FFFFFF"/><text text-anchor="middle" pointer-events="none" x="0" y="5" font-size="10px" fill="#FFFFFF" font-family="sans-serif"> AUROBINDO</text></g><g class="node" transform="translate(18.1364843897868,-128.6882108147959)"><circle class="outline" cx="0" cy="0" r="40" fill="#569480" stroke="#447666" stroke-width="2px"/><text text-anchor="middle" pointer-events="none" font-family="sans-serif" dy="2.5" font-size="40" fill="#FFFFFF"/><text text-anchor="middle" pointer-events="none" x="0" y="5" font-size="10px" fill="#FFFFFF" font-family="sans-serif"> Elderly</text></g><g class="node" transform="translate(206.4376222146812,215.90169741332764)"><circle class="outline" cx="0" cy="0" r="40" fill="#FFC454" stroke="#d7a013" stroke-width="2px"/><text text-anchor="middle" pointer-events="none" font-family="sans-serif" dy="2.5" font-size="40" fill="#2A2C34"/><text text-anchor="middle" pointer-events="none" x="0" y="5" font-size="40" fill="#2A2C34" dy="2.5" font-family="sans-serif"/><text text-anchor="middle" pointer-events="none" font-family="sans-serif" dy="2.5" font-size="40" fill="#2A2C34"/><text text-anchor="middle" pointer-events="none" x="0" y="-5" font-size="10px" fill="#2A2C34" font-family="sans-serif"> Hospitalization -</text><text text-anchor="middle" pointer-events="none" x="0" y="5" font-size="10px" fill="#2A2C34" font-family="sans-serif"> Initial or</text><text text-anchor="middle" pointer-events="none" x="0" y="15" font-size="10px" fill="#2A2C34" font-family="sans-serif"> Prolonged</text></g><g class="node" transform="translate(235.2660116421577,122.83336845563895)"><circle class="outline" cx="0" cy="0" r="40" fill="#DA7194" stroke="#cc3c6c" stroke-width="2px"/><text text-anchor="middle" pointer-events="none" font-family="sans-serif" dy="2.5" font-size="40" fill="#FFFFFF"/><text text-anchor="middle" pointer-events="none" x="0" y="5" font-size="10px" fill="#FFFFFF" font-family="sans-serif"> Pruritus</text></g><g class="node" transform="translate(241.18547632039326,29.755076654035463)"><circle class="outline" cx="0" cy="0" r="40" fill="#DA7194" stroke="#cc3c6c" stroke-width="2px"/><text text-anchor="middle" pointer-events="none" font-family="sans-serif" dy="2.5" font-size="40" fill="#FFFFFF"/><text text-anchor="middle" pointer-events="none" x="0" y="5" font-size="10px" fill="#FFFFFF" font-family="sans-serif"> Blister</text></g><g class="node" transform="translate(200.06039095703323,-50.51939814400981)"><circle class="outline" cx="0" cy="0" r="40" fill="#DA7194" stroke="#cc3c6c" stroke-width="2px"/><text text-anchor="middle" pointer-events="none" font-family="sans-serif" dy="2.5" font-size="40" fill="#FFFFFF"/><text text-anchor="middle" pointer-events="none" x="0" y="5" font-size="10px" fill="#FFFFFF" font-family="sans-serif"> Rash vesicular</text></g><g class="node" transform="translate(121.52581045624385,-100.24428440635822)"><circle class="outline" cx="0" cy="0" r="40" fill="#ECB5C9" stroke="#da7298" stroke-width="2px"/><text text-anchor="middle" pointer-events="none" font-family="sans-serif" dy="2.5" font-size="40" fill="#2A2C34"/><text text-anchor="middle" pointer-events="none" font-family="sans-serif" dy="2.5" font-size="40" fill="#2A2C34"/><text text-anchor="middle" pointer-events="none" x="0" y="0" font-size="10px" fill="#2A2C34" font-family="sans-serif"> Health</text><text text-anchor="middle" pointer-events="none" x="0" y="10" font-size="10px" fill="#2A2C34" font-family="sans-serif"> Professional</text></g><g class="node" transform="translate(-433.4300053665777,21.788152960343012)"><circle class="outline" cx="0" cy="0" r="40" fill="#F79767" stroke="#f36924" stroke-width="2px"/><text text-anchor="middle" pointer-events="none" font-family="sans-serif" dy="2.5" font-size="40" fill="#FFFFFF"/><text text-anchor="middle" pointer-events="none" x="0" y="5" font-size="10px" fill="#FFFFFF" font-family="sans-serif"> METFORMIN</text></g><g class="node" transform="translate(-428.53611915685497,149.7855065583558)"><circle class="outline" cx="0" cy="0" r="40" fill="#F79767" stroke="#f36924" stroke-width="2px"/><text text-anchor="middle" pointer-events="none" font-family="sans-serif" dy="2.5" font-size="40" fill="#FFFFFF"/><text text-anchor="middle" pointer-events="none" x="0" y="5" font-size="10px" fill="#FFFFFF" font-family="sans-serif"> Bisoprolol 25 mg</text></g><g class="node" transform="translate(-402.88656424986675,288.2225579656251)"><circle class="outline" cx="0" cy="0" r="40" fill="#F79767" stroke="#f36924" stroke-width="2px"/><text text-anchor="middle" pointer-events="none" font-family="sans-serif" dy="2.5" font-size="40" fill="#FFFFFF"/><text text-anchor="middle" pointer-events="none" x="0" y="5" font-size="10px" fill="#FFFFFF" font-family="sans-serif"> ELIQUIS</text></g><g class="node" transform="translate(-344.19981355567165,-102.83555300675147)"><circle class="outline" cx="0" cy="0" r="40" fill="#F79767" stroke="#f36924" stroke-width="2px"/><text text-anchor="middle" pointer-events="none" font-family="sans-serif" dy="2.5" font-size="40" fill="#FFFFFF"/><text text-anchor="middle" pointer-events="none" x="0" y="5" font-size="10px" fill="#FFFFFF" font-family="sans-serif"> SIMVASTATIN</text></g><g class="node" transform="translate(-231.38297095878704,304.71809279973104)"><circle class="outline" cx="0" cy="0" r="40" fill="#D9C8AE" stroke="#c0a378" stroke-width="2px"/><text text-anchor="middle" pointer-events="none" font-family="sans-serif" dy="2.5" font-size="40" fill="#2A2C34"/><text text-anchor="middle" pointer-events="none" x="0" y="5" font-size="10px" fill="#2A2C34" font-family="sans-serif"> 104291946</text></g></g></svg>