<svg xmlns="http://www.w3.org/2000/svg" width="341.3575134277344" height="352.86767578125" viewBox="-186.46560668945312 -100.78743743896484 341.3575134277344 352.86767578125"><title>Neo4j Graph Visualization</title><desc>Created using Neo4j (http://www.neo4j.com/)</desc><g class="layer relationships"><g class="relationship" transform="translate(-14.590444086155046 72.79027610075013) rotate(397.0917815205945)"><path class="b-outline" fill="#A5ABB6" stroke="none" d="M 25 0.5 L 48.966004605780014 0.5 L 48.966004605780014 -0.5 L 25 -0.5 Z M 95.86444210578001 0.5 L 119.83044671156003 0.5 L 119.83044671156003 3.5 L 126.83044671156003 0 L 119.83044671156003 -3.5 L 119.83044671156003 -0.5 L 95.86444210578001 -0.5 Z"/><text text-anchor="middle" pointer-events="none" font-size="8px" fill="#000000" x="72.41522335578001" y="3" font-family="Helvetica Neue, Helvetica, Arial, sans-serif">RECEIVED</text></g><g class="relationship" transform="translate(-14.590444086155046 72.79027610075013) rotate(526.4244328552898)"><path class="b-outline" fill="#A5ABB6" stroke="none" d="M 25 0.5 L 35.8736442169143 0.5 L 35.8736442169143 -0.5 L 25 -0.5 Z M 104.1080192169143 0.5 L 114.9816634338286 0.5 L 114.9816634338286 3.5 L 121.9816634338286 0 L 114.9816634338286 -3.5 L 114.9816634338286 -0.5 L 104.1080192169143 -0.5 Z"/><text text-anchor="middle" pointer-events="none" font-size="8px" fill="#000000" x="69.9908317169143" y="3" transform="rotate(180 69.9908317169143 0)" font-family="Helvetica Neue, Helvetica, Arial, sans-serif">HAS_REACTION</text></g><g class="relationship" transform="translate(-14.590444086155046 72.79027610075013) rotate(453.6540139851844)"><path class="b-outline" fill="#A5ABB6" stroke="none" d="M 17.324116139070416,18.03122292025696 L 18.031222920256962,17.324116139070412 A 79.11404610260607 79.11404610260607 0 0 0 37.05888037141695,31.356017176409694 L 36.5922828093706,32.240486913083814 A 80.11404610260607 80.11404610260607 0 0 1 17.324116139070416,18.03122292025696 Z M 106.77356627093727,34.47378142565067 L 106.3641466190773,33.56143524756317 A 79.11404610260607 79.11404610260607 0 0 0 126.24544441779062,20.767687061857625 L 124.26328781274927,18.515786710356494 L 131.8302380054668,16.517971708677976 L 128.8883198911791,23.77022086385913 L 126.90616328613774,21.518320512358 A 80.11404610260607 80.11404610260607 0 0 1 106.77356627093727,34.47378142565067"/><text text-anchor="middle" pointer-events="none" font-size="8px" fill="#000000" x="71.44112119408416" y="43.95580468818453" transform="rotate(180 71.44112119408416 40.95580468818453)" font-family="Helvetica Neue, Helvetica, Arial, sans-serif">IS_INTERACTING</text></g><g class="relationship" transform="translate(-14.590444086155046 72.79027610075013) rotate(256.67361982126494)"><path class="b-outline" fill="#A5ABB6" stroke="none" d="M 25 0.5 L 40.523630271450656 0.5 L 40.523630271450656 -0.5 L 25 -0.5 Z M 101.05488027145066 0.5 L 116.57851054290131 0.5 L 116.57851054290131 3.5 L 123.57851054290131 0 L 116.57851054290131 -3.5 L 116.57851054290131 -0.5 L 101.05488027145066 -0.5 Z"/><text text-anchor="middle" pointer-events="none" font-size="8px" fill="#000000" x="70.78925527145066" y="3" transform="rotate(180 70.78925527145066 0)" font-family="Helvetica Neue, Helvetica, Arial, sans-serif">RESULTED_IN</text></g><g class="relationship" transform="translate(-137.14464808069945 -10.31657417249869) rotate(394.14210668529296)"><path class="b-outline" fill="#A5ABB6" stroke="none" d="M 25 0.5 L 41.53372181687658 0.5 L 41.53372181687658 -0.5 L 25 -0.5 Z M 99.54153431687658 0.5 L 116.07525613375316 0.5 L 116.07525613375316 3.5 L 123.07525613375316 0 L 116.07525613375316 -3.5 L 116.07525613375316 -0.5 L 99.54153431687658 -0.5 Z"/><text text-anchor="middle" pointer-events="none" font-size="8px" fill="#000000" x="70.53762806687658" y="3" font-family="Helvetica Neue, Helvetica, Arial, sans-serif">REGISTERED</text></g><g class="relationship" transform="translate(-14.590444086155046 72.79027610075013) rotate(453.6540139851844)"><path class="b-outline" fill="#A5ABB6" stroke="none" d="M 24.018736134675446,6.953439040707552 L 24.277555179777966,5.987513214418485 A 192.00961894845076 192.00961894845076 0 0 0 33.68193616408104,8.255115626724006 L 33.47209581616987,9.232851290586467 A 193.00961894845076 193.00961894845076 0 0 1 24.018736134675446,6.953439040707552 Z M 110.11887346588568,10.115322555245456 L 109.93160004264234,9.13301472928319 A 192.00961894845076 192.00961894845076 0 0 0 119.38569713954149,7.082539057490117 L 118.6761640028935,4.167652656959479 L 126.3053542635543,5.9127761387332445 L 120.3317413217388,10.969054258197636 L 119.62220818509081,8.054167857666997 A 193.00961894845076 193.00961894845076 0 0 1 110.11887346588568,10.115322555245456"/><text text-anchor="middle" pointer-events="none" font-size="8px" fill="#000000" x="71.75699234208254" y="16.01732403061078" transform="rotate(180 71.75699234208254 13.01732403061078)" font-family="Helvetica Neue, Helvetica, Arial, sans-serif">IS_CONCOMITANT</text></g><g class="relationship" transform="translate(106.52021582893703 164.35824322661125) rotate(515.8075507317243)"><path class="b-outline" fill="#A5ABB6" stroke="none" d="M 25 0.5 L 39.14074142363603 0.5 L 39.14074142363603 -0.5 L 25 -0.5 Z M 97.15246017363603 0.5 L 111.29320159727206 0.5 L 111.29320159727206 3.5 L 118.29320159727206 0 L 111.29320159727206 -3.5 L 111.29320159727206 -0.5 L 97.15246017363603 -0.5 Z"/><text text-anchor="middle" pointer-events="none" font-size="8px" fill="#000000" x="68.14660079863603" y="3" transform="rotate(180 68.14660079863603 0)" font-family="Helvetica Neue, Helvetica, Arial, sans-serif">PRESCRIBED</text></g><g class="relationship" transform="translate(-14.590444086155046 72.79027610075013) rotate(453.6540139851844)"><path class="b-outline" fill="#A5ABB6" stroke="none" d="M 24.018736134675446,-6.953439040707552 L 24.277555179777966,-5.987513214418485 A 192.00961894845076 192.00961894845076 0 0 1 26.33433510483229,-6.526438168494195 L 26.086227918522674,-7.495170754970729 A 193.00961894845076 193.00961894845076 0 0 0 24.018736134675446,-6.953439040707552 Z M 117.54279168022362,-8.548154219624678 L 117.31705427650724,-7.573966032176571 A 192.00961894845076 192.00961894845076 0 0 1 119.38569713954149,-7.082539057490117 L 118.6761640028935,-4.167652656959479 L 126.3053542635543,-5.9127761387332445 L 120.3317413217388,-10.969054258197636 L 119.62220818509081,-8.054167857666997 A 193.00961894845076 193.00961894845076 0 0 0 117.54279168022362,-8.548154219624678"/><text text-anchor="middle" pointer-events="none" font-size="8px" fill="#000000" x="71.75699234208247" y="-10.01732403061078" transform="rotate(180 71.75699234208247 -13.01732403061078)" font-family="Helvetica Neue, Helvetica, Arial, sans-serif">IS_SECONDARY_SU…</text></g><g class="relationship" transform="translate(-14.590444086155046 72.79027610075013) rotate(453.6540139851844)"><path class="b-outline" fill="#A5ABB6" stroke="none" d="M 17.324116139070416,-18.03122292025696 L 18.031222920256962,-17.324116139070412 A 79.11404610260607 79.11404610260607 0 0 1 26.843957615121212,-24.926173845839024 L 26.248243628627968,-25.729370488197745 A 80.11404610260607 80.11404610260607 0 0 0 17.324116139070416,-18.03122292025696 Z M 117.51064898651043,-28.63350416938107 L 116.96720685996705,-27.794057533139082 A 79.11404610260607 79.11404610260607 0 0 1 126.24544441779062,-20.767687061857625 L 124.26328781274927,-18.515786710356494 L 131.8302380054668,-16.517971708677976 L 128.8883198911791,-23.77022086385913 L 126.90616328613774,-21.518320512358 A 80.11404610260607 80.11404610260607 0 0 0 117.51064898651043,-28.63350416938107"/><text text-anchor="middle" pointer-events="none" font-size="8px" fill="#000000" x="71.44112119408416" y="-37.95580468818453" transform="rotate(180 71.44112119408416 -40.95580468818453)" font-family="Helvetica Neue, Helvetica, Arial, sans-serif">IS_PRIMARY_SUSPECT</text></g><g class="relationship" transform="translate(-14.590444086155046 72.79027610075013) rotate(342.5319328984948)"><path class="b-outline" fill="#A5ABB6" stroke="none" d="M 25 0.5 L 37.42407733800893 0.5 L 37.42407733800893 -0.5 L 25 -0.5 Z M 102.84985858800893 0.5 L 115.27393592601786 0.5 L 115.27393592601786 3.5 L 122.27393592601786 0 L 115.27393592601786 -3.5 L 115.27393592601786 -0.5 L 102.84985858800893 -0.5 Z"/><text text-anchor="middle" pointer-events="none" font-size="8px" fill="#000000" x="70.13696796300893" y="3" font-family="Helvetica Neue, Helvetica, Arial, sans-serif">REPORTED_BY</text></g><g class="relationship" transform="translate(-14.590444086155046 72.79027610075013) rotate(296.4611619697515)"><path class="b-outline" fill="#A5ABB6" stroke="none" d="M 25 0.5 L 39.450094187341065 0.5 L 39.450094187341065 -0.5 L 25 -0.5 Z M 102.36025043734107 0.5 L 116.81034462468213 0.5 L 116.81034462468213 3.5 L 123.81034462468213 0 L 116.81034462468213 -3.5 L 116.81034462468213 -0.5 L 102.36025043734107 -0.5 Z"/><text text-anchor="middle" pointer-events="none" font-size="8px" fill="#000000" x="70.90517231234107" y="3" font-family="Helvetica Neue, Helvetica, Arial, sans-serif">FALLS_UNDER</text></g></g><g class="layer nodes"><g class="node" aria-label="graph-node-1" transform="translate(-24.18813567464362,223.08020224717575)"><circle class="b-outline" cx="0" cy="0" r="25" fill="#57C7E3" stroke="#23b3d7" stroke-width="2px"/><text class="caption" text-anchor="middle" pointer-events="none" x="0" y="5" font-size="10px" fill="#2A2C34" font-family="Helvetica Neue, Helvetica, Arial, sans-serif"> Drug</text></g><g class="node" aria-label="graph-node-6" transform="translate(106.52021582893703,164.35824322661125)"><circle class="b-outline" cx="0" cy="0" r="25" fill="#F16667" stroke="#eb2728" stroke-width="2px"/><text class="caption" text-anchor="middle" pointer-events="none" x="0" y="5" font-size="10px" fill="#FFFFFF" font-family="Helvetica Neue, Helvetica, Arial, sans-serif"> Therapy</text></g><g class="node" aria-label="graph-node-4" transform="translate(125.89186536782476,28.582438180115837)"><circle class="b-outline" cx="0" cy="0" r="25" fill="#D9C8AE" stroke="#c0a378" stroke-width="2px"/><text class="caption" text-anchor="middle" pointer-events="none" x="0" y="5" font-size="10px" fill="#2A2C34" font-family="Helvetica Neue, Helvetica, Arial, sans-serif"> ReportS…</text></g><g class="node" aria-label="graph-node-8" transform="translate(51.71811779929318,-60.43019262684571)"><circle class="b-outline" cx="0" cy="0" r="25" fill="#8DCC93" stroke="#5db665" stroke-width="2px"/><text class="caption" text-anchor="middle" pointer-events="none" x="0" y="5" font-size="10px" fill="#2A2C34" font-family="Helvetica Neue, Helvetica, Arial, sans-serif"> AgeGroup</text></g><g class="node" aria-label="graph-node-5" transform="translate(-48.83746162849942,-71.78743858792998)"><circle class="b-outline" cx="0" cy="0" r="25" fill="#ECB5C9" stroke="#da7298" stroke-width="2px"/><text class="caption" text-anchor="middle" pointer-events="none" x="0" y="5" font-size="10px" fill="#2A2C34" font-family="Helvetica Neue, Helvetica, Arial, sans-serif"> Outcome</text></g><g class="node" aria-label="graph-node-7" transform="translate(-137.14464808069945,-10.31657417249869)"><circle class="b-outline" cx="0" cy="0" r="25" fill="#4C8EDA" stroke="#2870c2" stroke-width="2px"/><text class="caption" text-anchor="middle" pointer-events="none" x="0" y="5" font-size="10px" fill="#FFFFFF" font-family="Helvetica Neue, Helvetica, Arial, sans-serif"> Manufac…</text></g><g class="node" aria-label="graph-node-3" transform="translate(-157.46561397868388,107.29093136925616)"><circle class="b-outline" cx="0" cy="0" r="25" fill="#F79767" stroke="#f36924" stroke-width="2px"/><text class="caption" text-anchor="middle" pointer-events="none" x="0" y="5" font-size="10px" fill="#FFFFFF" font-family="Helvetica Neue, Helvetica, Arial, sans-serif"> </text></g><g class="node" aria-label="graph-node-2" transform="translate(-14.590444086155046,72.79027610075013)"><circle class="b-outline" cx="0" cy="0" r="25" fill="#C990C0" stroke="#b261a5" stroke-width="2px"/><text class="caption" text-anchor="middle" pointer-events="none" x="0" y="5" font-size="10px" fill="#FFFFFF" font-family="Helvetica Neue, Helvetica, Arial, sans-serif"> Case</text></g></g></svg>