<?xml version="1.0" standalone="no"?>
<!DOCTYPE svg PUBLIC "-//W3C//DTD SVG 20010904//EN"
 "http://www.w3.org/TR/2001/REC-SVG-20010904/DTD/svg10.dtd">
<svg version="1.0" xmlns="http://www.w3.org/2000/svg"
 width="512.000000pt" height="512.000000pt" viewBox="0 0 512.000000 512.000000"
 preserveAspectRatio="xMidYMid meet">

<g transform="translate(0.000000,512.000000) scale(0.100000,-0.100000)"
fill="#000000" stroke="none">
<path d="M2176 5013 c-65 -19 -142 -69 -190 -123 -33 -36 -79 -121 -100 -182
-5 -17 -38 -18 -494 -18 l-489 0 -23 -25 c-18 -19 -25 -40 -28 -85 l-4 -60
-142 0 c-147 -1 -162 -4 -184 -47 -9 -16 -12 -555 -12 -2168 0 -2293 -2 -2191
45 -2209 9 -3 891 -6 1959 -6 1908 0 1944 0 2022 20 419 106 669 534 554 948
-77 277 -304 488 -585 546 l-60 13 -5 1426 -5 1425 -24 26 c-24 26 -27 26
-167 26 l-142 0 -4 60 c-3 45 -10 66 -28 85 l-23 25 -489 0 c-456 0 -489 1
-494 18 -52 154 -147 256 -282 301 -56 19 -84 21 -309 20 -191 0 -259 -4 -297
-16z m579 -177 c83 -38 130 -106 144 -206 13 -99 23 -104 196 -108 l145 -3 0
-170 0 -169 -765 0 -765 0 0 169 0 170 145 3 c172 4 181 8 195 105 14 105 62
173 150 212 41 19 65 21 275 21 220 0 232 -1 280 -24z m-1215 -545 c0 -210 2
-231 19 -252 l19 -24 874 -3 c480 -1 883 0 896 3 12 3 31 14 42 25 19 19 20
34 20 250 l0 230 260 0 260 0 0 -1514 0 -1513 -39 -28 c-132 -91 -245 -266
-287 -443 -23 -95 -21 -267 4 -354 l19 -68 -1303 0 -1304 0 0 1960 0 1960 260
0 260 0 0 -229z m-688 -1875 l3 -1934 24 -26 24 -26 1401 0 1401 -1 78 -84 79
-85 -1591 0 -1591 0 0 2045 0 2045 85 0 85 0 2 -1934z m3416 567 l-3 -1367
-60 -11 c-33 -6 -70 -15 -82 -19 l-23 -7 0 1385 0 1386 85 0 85 0 -2 -1367z
m198 -1544 c223 -41 421 -237 469 -464 20 -95 19 -167 -4 -257 -39 -153 -122
-274 -245 -356 -103 -69 -177 -93 -306 -99 -171 -9 -304 39 -427 151 -131 120
-195 263 -194 436 0 172 56 306 175 425 143 141 333 200 532 164z"/>
<path d="M2415 4665 c-32 -31 -32 -75 -1 -111 49 -58 146 -20 146 57 0 70 -94
106 -145 54z"/>
<path d="M2265 3828 c-41 -23 -44 -38 -45 -185 l0 -143 -136 0 c-136 0 -166
-6 -191 -39 -9 -11 -12 -75 -13 -219 0 -202 0 -203 25 -227 23 -24 28 -25 170
-25 l145 0 0 -145 c0 -142 1 -147 25 -170 24 -25 25 -25 230 -25 205 0 206 0
230 25 24 23 25 28 25 170 l0 145 145 0 c142 0 147 1 170 25 25 24 25 25 25
227 -1 144 -4 208 -13 219 -25 33 -55 39 -191 39 l-136 0 0 135 c0 144 -8 176
-47 194 -33 15 -391 14 -418 -1z m295 -293 c0 -141 10 -185 45 -199 9 -3 79
-6 156 -6 l139 0 0 -84 0 -85 -146 -3 c-146 -3 -146 -3 -170 -31 -23 -27 -24
-35 -24 -168 l0 -139 -85 0 -85 0 0 139 c0 133 -1 141 -24 168 -24 28 -24 28
-170 31 l-146 3 0 85 0 84 143 0 c196 1 197 2 197 204 l0 136 85 0 85 0 0
-135z"/>
<path d="M1605 2643 c-11 -3 -30 -14 -42 -26 -22 -20 -23 -26 -23 -227 l0
-207 26 -24 c25 -23 30 -24 214 -27 207 -4 241 4 260 54 6 14 10 106 10 205 0
202 -7 229 -61 248 -31 11 -342 14 -384 4z m273 -255 l-3 -83 -82 -3 -83 -3 0
86 0 85 85 0 86 0 -3 -82z"/>
<path d="M2302 2218 l3 -83 598 -3 597 -2 0 85 0 85 -600 0 -601 0 3 -82z"/>
<path d="M1565 1935 c-25 -24 -25 -25 -25 -228 0 -274 -22 -251 243 -255 l205
-3 28 25 29 24 3 188 c4 207 2 224 -30 254 -20 19 -35 20 -225 20 -203 0 -204
0 -228 -25z m315 -230 l0 -85 -85 0 -85 0 0 85 0 85 85 0 85 0 0 -85z"/>
<path d="M2300 1535 l0 -85 600 0 600 0 0 85 0 85 -600 0 -600 0 0 -85z"/>
<path d="M1565 1255 c-25 -24 -25 -25 -25 -230 0 -276 -21 -255 254 -255 l204
0 26 31 26 31 0 195 0 195 -29 29 -29 29 -202 0 c-200 0 -201 0 -225 -25z
m315 -230 l0 -85 -85 0 -85 0 0 85 0 85 85 0 85 0 0 -85z"/>
<path d="M2300 855 l0 -85 515 0 515 0 0 85 0 85 -515 0 -515 0 0 -85z"/>
<path d="M4474 1020 c-81 -121 -151 -220 -156 -220 -4 0 -67 29 -138 65 l-130
65 -37 -75 c-20 -41 -35 -76 -33 -79 22 -20 356 -176 378 -176 18 0 38 10 54
27 24 27 348 507 348 517 0 5 -92 69 -127 90 -8 4 -61 -66 -159 -214z"/>
</g>
</svg>
