<svg xmlns="http://www.w3.org/2000/svg" width="820.5985107421875" height="515.1783447265625" viewBox="-466.9923095703125 -208.38189697265625 820.5985107421875 515.1783447265625"><title>Neo4j Graph Visualization</title><desc>Created using Neo4j (http://www.neo4j.com/)</desc><g class="layer relationships"><g class="relationship" transform="translate(58.81791561417015 30.62095897826663) rotate(299.5399302499925)"><path class="outline" fill="#A5ABB6" stroke="none" d="M 40 0.5 L 69.58599309540637 0.5 L 69.58599309540637 -0.5 L 40 -0.5 Z M 137.82036809540637 0.5 L 167.40636119081273 0.5 L 167.40636119081273 3.5 L 174.40636119081273 0 L 167.40636119081273 -3.5 L 167.40636119081273 -0.5 L 137.82036809540637 -0.5 Z"/><text text-anchor="middle" pointer-events="none" font-size="8px" fill="#000000" x="103.70318059540637" y="3" font-family="sans-serif">HAS_REACTION</text></g><g class="relationship" transform="translate(58.81791561417015 30.62095897826663) rotate(180.1940478624971)"><path class="outline" fill="#A5ABB6" stroke="none" d="M 27.93071785686863,28.63782463805517 L 28.637824638055175,27.930717856868625 A 299.2994717073674 299.2994717073674 0 0 0 182.3054704895343,109.9260534647432 L 182.11178808886825,110.90711774789301 A 300.2994717073674 300.2994717073674 0 0 1 27.93071785686863,28.63782463805517 Z M 292.4341576855593,112.02895354067769 L 292.26046558180326,111.04415353403024 A 299.2994717073674 299.2994717073674 0 0 0 447.56373603829053,32.190652479843834 L 445.4859920566398,30.026633083739846 L 452.9594052928083,27.7032530886762 L 450.3340613471581,35.07601167464916 L 448.2563173655074,32.91199227854517 A 300.2994717073674 300.2994717073674 0 0 1 292.4341576855593,112.02895354067769"/><text text-anchor="middle" pointer-events="none" font-size="8px" fill="#000000" x="237.22609546512868" y="119.07800469525992" transform="rotate(180 237.22609546512868 116.07800469525992)" font-family="sans-serif">IS_SECONDARY_SUSPECT</text></g><g class="relationship" transform="translate(58.81791561417015 30.62095897826663) rotate(180.1940478624971)"><path class="outline" fill="#A5ABB6" stroke="none" d="M 38.50762352901147,10.835724717245364 L 38.766442574113995,9.869798890956295 A 778.5673887868312 778.5673887868312 0 0 0 189.18172538616767,34.72057145510996 L 189.116101284725,35.71841587049232 A 779.5673887868312 779.5673887868312 0 0 1 38.50762352901147,10.835724717245364 Z M 285.66246704105777,36.07642938781578 L 285.60424506178305,35.078125726032795 A 778.5673887868312 778.5673887868312 0 0 0 436.1996921605669,11.343562035442584 L 435.44474717714814,8.440105806736721 L 443.1002475247837,10.065933112249834 L 437.2062854717919,15.214837007050402 L 436.45134048837315,12.311380778344539 A 779.5673887868312 779.5673887868312 0 0 1 285.66246704105777,36.07642938781578"/><text text-anchor="middle" pointer-events="none" font-size="8px" fill="#000000" x="237.3855905688607" y="39.89348300951963" transform="rotate(180 237.3855905688607 36.89348300951963)" font-family="sans-serif">IS_PRIMARY_SUSPECT</text></g><g class="relationship" transform="translate(58.81791561417015 30.62095897826663) rotate(412.5005745798805)"><path class="outline" fill="#A5ABB6" stroke="none" d="M 40 0.5 L 69.90988647038054 0.5 L 69.90988647038054 -0.5 L 40 -0.5 Z M 135.33566772038054 0.5 L 165.24555419076108 0.5 L 165.24555419076108 3.5 L 172.24555419076108 0 L 165.24555419076108 -3.5 L 165.24555419076108 -0.5 L 135.33566772038054 -0.5 Z"/><text text-anchor="middle" pointer-events="none" font-size="8px" fill="#000000" x="102.62277709538054" y="3" font-family="sans-serif">REPORTED_BY</text></g><g class="relationship" transform="translate(309.60619078038815 106.24476201704206) rotate(196.78039161760034)"><path class="outline" fill="#A5ABB6" stroke="none" d="M 40 0.5 L 98.46719604635979 0.5 L 98.46719604635979 -0.5 L 40 -0.5 Z M 156.4750085463598 0.5 L 214.94220459271958 0.5 L 214.94220459271958 3.5 L 221.94220459271958 0 L 214.94220459271958 -3.5 L 214.94220459271958 -0.5 L 156.4750085463598 -0.5 Z"/><text text-anchor="middle" pointer-events="none" font-size="8px" fill="#000000" x="127.47110229635979" y="3" transform="rotate(180 127.47110229635979 0)" font-family="sans-serif">REGISTSRED</text></g><g class="relationship" transform="translate(58.81791561417015 30.62095897826663) rotate(495.7554812965009)"><path class="outline" fill="#A5ABB6" stroke="none" d="M 40 0.5 L 139.43186840267649 0.5 L 139.43186840267649 -0.5 L 40 -0.5 Z M 186.33030590267649 0.5 L 285.76217430535297 0.5 L 285.76217430535297 3.5 L 292.76217430535297 0 L 285.76217430535297 -3.5 L 285.76217430535297 -0.5 L 186.33030590267649 -0.5 Z"/><text text-anchor="middle" pointer-events="none" font-size="8px" fill="#000000" x="162.88108715267649" y="3" transform="rotate(180 162.88108715267649 0)" font-family="sans-serif">RECEIVED</text></g><g class="relationship" transform="translate(58.81791561417015 30.62095897826663) rotate(180.1940478624971)"><path class="outline" fill="#A5ABB6" stroke="none" d="M 38.50762352901147,-10.835724717245364 L 38.766442574113995,-9.869798890956295 A 778.5673887868312 778.5673887868312 0 0 1 201.31166381573757,-35.42329429209258 L 201.26161953256658,-36.42204129194886 A 779.5673887868312 779.5673887868312 0 0 0 38.50762352901147,-10.835724717245364 Z M 273.5120645090984,-36.689960604411795 L 273.4694286134731,-35.690869927644144 A 778.5673887868312 778.5673887868312 0 0 1 436.1996921605669,-11.343562035442584 L 435.44474717714814,-8.440105806736721 L 443.1002475247837,-10.065933112249834 L 437.2062854717919,-15.214837007050402 L 436.45134048837315,-12.311380778344539 A 779.5673887868312 779.5673887868312 0 0 0 273.5120645090984,-36.689960604411795"/><text text-anchor="middle" pointer-events="none" font-size="8px" fill="#000000" x="237.38559056886052" y="-33.89348300951963" transform="rotate(180 237.38559056886052 -36.89348300951963)" font-family="sans-serif">IS_INTERACTING</text></g><g class="relationship" transform="translate(58.81791561417015 30.62095897826663) rotate(460.4290527883541)"><path class="outline" fill="#A5ABB6" stroke="none" d="M 38.50762352901147,-10.835724717245364 L 38.766442574113995,-9.869798890956295 A 273.63153010583994 273.63153010583994 0 0 1 78.09606058710432,-17.37539932092656 L 77.98097358193804,-18.368754736295017 A 274.63153010583994 274.63153010583994 0 0 0 38.50762352901147,-10.835724717245364 Z M 136.86767087744417,-18.835287270728287 L 136.76833713757503,-17.84023309726652 A 273.63153010583994 273.63153010583994 0 0 1 176.21193773427493,-10.95871707024765 L 175.4814907298403,-8.049001074877575 L 183.1230162242109,-9.739293392461839 L 177.18586707352114,-14.838338397407748 L 176.4554200690865,-11.928622402037673 A 274.63153010583994 274.63153010583994 0 0 0 136.86767087744417,-18.835287270728287"/><text text-anchor="middle" pointer-events="none" font-size="8px" fill="#000000" x="107.41574256130791" y="-16.684964416216843" transform="rotate(180 107.41574256130791 -19.684964416216843)" font-family="sans-serif">OCCURED_IN</text></g><g class="relationship" transform="translate(58.81791561417015 30.62095897826663) rotate(340.44815392555415)"><path class="outline" fill="#A5ABB6" stroke="none" d="M 40 0.5 L 80.03814568603659 0.5 L 80.03814568603659 -0.5 L 40 -0.5 Z M 140.5693956860366 0.5 L 180.60754137207317 0.5 L 180.60754137207317 3.5 L 187.60754137207317 0 L 180.60754137207317 -3.5 L 180.60754137207317 -0.5 L 140.5693956860366 -0.5 Z"/><text text-anchor="middle" pointer-events="none" font-size="8px" fill="#000000" x="110.30377068603659" y="3" font-family="sans-serif">RESULTED_IN</text></g><g class="relationship" transform="translate(58.81791561417015 30.62095897826663) rotate(180.1940478624971)"><path class="outline" fill="#A5ABB6" stroke="none" d="M 27.93071785686863,-28.63782463805517 L 28.637824638055175,-27.930717856868625 A 299.2994717073674 299.2994717073674 0 0 1 198.94536818123515,-112.72627658478498 L 198.8072819284567,-113.7166967919666 A 300.2994717073674 300.2994717073674 0 0 0 27.93071785686863,-28.63782463805517 Z M 275.6849825422332,-114.49844356309566 L 275.56706534559936,-113.50542013198336 A 299.2994717073674 299.2994717073674 0 0 1 447.56373603829053,-32.190652479843834 L 445.4859920566398,-30.026633083739846 L 452.9594052928083,-27.7032530886762 L 450.3340613471581,-35.07601167464916 L 448.2563173655074,-32.91199227854517 A 300.2994717073674 300.2994717073674 0 0 0 275.6849825422332,-114.49844356309566"/><text text-anchor="middle" pointer-events="none" font-size="8px" fill="#000000" x="237.22609546512862" y="-113.07800469525992" transform="rotate(180 237.22609546512862 -116.07800469525992)" font-family="sans-serif">IS_CONCOMITANT</text></g><g class="relationship" transform="translate(-179.56248908380695 262.79642560739774) rotate(223.84489659479283)"><path class="outline" fill="#A5ABB6" stroke="none" d="M 40 0.5 L 136.25722487039576 0.5 L 136.25722487039576 -0.5 L 40 -0.5 Z M 194.26894362039576 0.5 L 290.5261684907915 0.5 L 290.5261684907915 3.5 L 297.5261684907915 0 L 290.5261684907915 -3.5 L 290.5261684907915 -0.5 L 194.26894362039576 -0.5 Z"/><text text-anchor="middle" pointer-events="none" font-size="8px" fill="#000000" x="165.26308424539576" y="3" transform="rotate(180 165.26308424539576 0)" font-family="sans-serif">PRESCRIBED</text></g><g class="relationship" transform="translate(58.81791561417015 30.62095897826663) rotate(249.4118077455069)"><path class="outline" fill="#A5ABB6" stroke="none" d="M 40 0.5 L 69.19842060890298 0.5 L 69.19842060890298 -0.5 L 40 -0.5 Z M 132.10857685890298 0.5 L 161.30699746780596 0.5 L 161.30699746780596 3.5 L 168.30699746780596 0 L 161.30699746780596 -3.5 L 161.30699746780596 -0.5 L 132.10857685890298 -0.5 Z"/><text text-anchor="middle" pointer-events="none" font-size="8px" fill="#000000" x="100.65349873390298" y="3" transform="rotate(180 100.65349873390298 0)" font-family="sans-serif">FALLS_UNDER</text></g><g class="relationship" transform="translate(58.81791561417015 30.62095897826663) rotate(460.4290527883541)"><path class="outline" fill="#A5ABB6" stroke="none" d="M 38.50762352901147,10.835724717245364 L 38.766442574113995,9.869798890956295 A 273.63153010583994 273.63153010583994 0 0 0 76.18348733131343,17.146989921566927 L 76.06141073231252,18.13951060345542 A 274.63153010583994 274.63153010583994 0 0 1 38.50762352901147,10.835724717245364 Z M 138.79062493897658,18.636485652675475 L 138.68428925704788,17.642155364114984 A 273.63153010583994 273.63153010583994 0 0 0 176.21193773427493,10.95871707024765 L 175.4814907298403,8.049001074877575 L 183.1230162242109,9.739293392461839 L 177.18586707352114,14.838338397407748 L 176.4554200690865,11.928622402037673 A 274.63153010583994 274.63153010583994 0 0 1 138.79062493897658,18.636485652675475"/><text text-anchor="middle" pointer-events="none" font-size="8px" fill="#000000" x="107.41574256130798" y="22.684964416216843" transform="rotate(180 107.41574256130798 19.684964416216843)" font-family="sans-serif">REPORTED_IN</text></g></g><g class="layer nodes"><g class="node" transform="translate(-422.9923183742526,28.989170314285218)"><circle class="outline" cx="0" cy="0" r="40" fill="#F79767" stroke="#f36924" stroke-width="2px"/><text text-anchor="middle" pointer-events="none" font-family="sans-serif" dy="2.5" font-size="40" fill="#FFFFFF"/><text text-anchor="middle" pointer-events="none" x="0" y="5" font-size="10px" fill="#FFFFFF" font-family="sans-serif"> Drug</text></g><g class="node" transform="translate(-179.56248908380695,262.79642560739774)"><circle class="outline" cx="0" cy="0" r="40" fill="#D9C8AE" stroke="#c0a378" stroke-width="2px"/><text text-anchor="middle" pointer-events="none" font-family="sans-serif" dy="2.5" font-size="40" fill="#2A2C34"/><text text-anchor="middle" pointer-events="none" x="0" y="5" font-size="10px" fill="#2A2C34" font-family="sans-serif"> Therapy</text></g><g class="node" transform="translate(188.0231338532722,199.0079740760149)"><circle class="outline" cx="0" cy="0" r="40" fill="#ECB5C9" stroke="#da7298" stroke-width="2px"/><text text-anchor="middle" pointer-events="none" font-family="sans-serif" dy="2.5" font-size="40" fill="#2A2C34"/><text text-anchor="middle" pointer-events="none" x="0" y="5" font-size="10px" fill="#2A2C34" font-family="sans-serif"> ReportSource</text></g><g class="node" transform="translate(-14.432976330230211,-164.3818923429443)"><circle class="outline" cx="0" cy="0" r="40" fill="#569480" stroke="#447666" stroke-width="2px"/><text text-anchor="middle" pointer-events="none" font-family="sans-serif" dy="2.5" font-size="40" fill="#FFFFFF"/><text text-anchor="middle" pointer-events="none" x="0" y="5" font-size="10px" fill="#FFFFFF" font-family="sans-serif"> AgeGroup</text></g><g class="node" transform="translate(273.3013895793141,-45.5501135183408)"><circle class="outline" cx="0" cy="0" r="40" fill="#FFC454" stroke="#d7a013" stroke-width="2px"/><text text-anchor="middle" pointer-events="none" font-family="sans-serif" dy="2.5" font-size="40" fill="#2A2C34"/><text text-anchor="middle" pointer-events="none" x="0" y="5" font-size="10px" fill="#2A2C34" font-family="sans-serif"> Outcome</text></g><g class="node" transform="translate(309.60619078038815,106.24476201704206)"><circle class="outline" cx="0" cy="0" r="40" fill="#4C8EDA" stroke="#2870c2" stroke-width="2px"/><text text-anchor="middle" pointer-events="none" font-family="sans-serif" dy="2.5" font-size="40" fill="#FFFFFF"/><text text-anchor="middle" pointer-events="none" x="0" y="5" font-size="10px" fill="#FFFFFF" font-family="sans-serif"> Manufacturer</text></g><g class="node" transform="translate(18.64657193671446,248.87404043913068)"><circle class="outline" cx="0" cy="0" r="40" fill="#57C7E3" stroke="#23b3d7" stroke-width="2px"/><text text-anchor="middle" pointer-events="none" font-family="sans-serif" dy="2.5" font-size="40" fill="#2A2C34"/><text text-anchor="middle" pointer-events="none" x="0" y="5" font-size="10px" fill="#2A2C34" font-family="sans-serif"> Country</text></g><g class="node" transform="translate(164.5266846936022,-155.91521407885534)"><circle class="outline" cx="0" cy="0" r="40" fill="#DA7194" stroke="#cc3c6c" stroke-width="2px"/><text text-anchor="middle" pointer-events="none" font-family="sans-serif" dy="2.5" font-size="40" fill="#FFFFFF"/><text text-anchor="middle" pointer-events="none" x="0" y="5" font-size="10px" fill="#FFFFFF" font-family="sans-serif"> Reaction</text></g><g class="node" transform="translate(58.81791561417015,30.62095897826663)"><circle class="outline" cx="0" cy="0" r="40" fill="#F16667" stroke="#eb2728" stroke-width="2px"/><text text-anchor="middle" pointer-events="none" font-family="sans-serif" dy="2.5" font-size="40" fill="#FFFFFF"/><text text-anchor="middle" pointer-events="none" x="0" y="5" font-size="10px" fill="#FFFFFF" font-family="sans-serif"> Case</text></g></g></svg>