<svg xmlns="http://www.w3.org/2000/svg" width="711.2191162109375" height="480.69677734375" viewBox="-386.2754211425781 -192.4978790283203 711.2191162109375 480.69677734375"><title>Neo4j Graph Visualization</title><desc>Created using Neo4j (http://www.neo4j.com/)</desc><g class="layer relationships"><g class="relationship" transform="translate(70.97543478450234 19.10464753005325) rotate(492.6558676466312)"><path class="outline" fill="#A5ABB6" stroke="none" d="M 40 0.5 L 128.80467267131502 0.5 L 128.80467267131502 -0.5 L 40 -0.5 Z M 175.70311017131502 0.5 L 264.50778284263004 0.5 L 264.50778284263004 3.5 L 271.50778284263004 0 L 264.50778284263004 -3.5 L 264.50778284263004 -0.5 L 175.70311017131502 -0.5 Z"/><text text-anchor="middle" pointer-events="none" font-size="8px" fill="#000000" x="152.25389142131502" y="3" transform="rotate(180 152.25389142131502 0)" font-family="sans-serif">RECEIVED</text></g><g class="relationship" transform="translate(70.97543478450234 19.10464753005325) rotate(397.4607067288246)"><path class="outline" fill="#A5ABB6" stroke="none" d="M 40 0.5 L 73.63400146886832 0.5 L 73.63400146886832 -0.5 L 40 -0.5 Z M 141.86837646886832 0.5 L 175.50237793773664 0.5 L 175.50237793773664 3.5 L 182.50237793773664 0 L 175.50237793773664 -3.5 L 175.50237793773664 -0.5 L 141.86837646886832 -0.5 Z"/><text text-anchor="middle" pointer-events="none" font-size="8px" fill="#000000" x="107.75118896886832" y="3" font-family="sans-serif">HAS_REACTION</text></g><g class="relationship" transform="translate(70.97543478450234 19.10464753005325) rotate(537.6672047833756)"><path class="outline" fill="#A5ABB6" stroke="none" d="M 27.93071785686863,28.63782463805517 L 28.637824638055175,27.930717856868625 A 253.75442366090707 253.75442366090707 0 0 0 169.20627316040944,99.26003213227798 L 169.0531210512021,100.24823475899245 A 254.75442366090707 254.75442366090707 0 0 1 27.93071785686863,28.63782463805517 Z M 241.17756105135527,101.09310651932279 L 241.04759956840707,100.10158747616231 A 253.75442366090707 253.75442366090707 0 0 0 383.2483617466799,32.08465553344581 L 381.17731532879355,29.914225452802786 L 388.65787300449466,27.613952238484803 L 386.0097569705284,34.9785623076365 L 383.938710552642,32.80813222699348 A 254.75442366090707 254.75442366090707 0 0 1 241.17756105135527,101.09310651932279"/><text text-anchor="middle" pointer-events="none" font-size="8px" fill="#000000" x="205.0911449710806" y="105.7362252196589" transform="rotate(180 205.0911449710806 102.7362252196589)" font-family="sans-serif">IS_INTERACTING</text></g><g class="relationship" transform="translate(70.97543478450234 19.10464753005325) rotate(321.35551219739114)"><path class="outline" fill="#A5ABB6" stroke="none" d="M 40 0.5 L 73.40363815809738 0.5 L 73.40363815809738 -0.5 L 40 -0.5 Z M 133.93488815809738 0.5 L 167.33852631619476 0.5 L 167.33852631619476 3.5 L 174.33852631619476 0 L 167.33852631619476 -3.5 L 167.33852631619476 -0.5 L 133.93488815809738 -0.5 Z"/><text text-anchor="middle" pointer-events="none" font-size="8px" fill="#000000" x="103.66926315809738" y="3" font-family="sans-serif">RESULTED_IN</text></g><g class="relationship" transform="translate(70.97543478450234 19.10464753005325) rotate(537.6672047833756)"><path class="outline" fill="#A5ABB6" stroke="none" d="M 38.50762352901147,10.835724717245364 L 38.766442574113995,9.869798890956295 A 654.1360034907422 654.1360034907422 0 0 0 166.850877389422,30.85902341491942 L 166.78786538464718,31.857036184003164 A 655.1360034907422 655.1360034907422 0 0 1 38.50762352901147,10.835724717245364 Z M 243.7664390683767,32.185684419700465 L 243.7119509307787,31.18717000174695 A 654.1360034907422 654.1360034907422 0 0 0 371.97093385353423,11.292364456217248 L 371.21924780683696,8.388062803977824 L 378.8729187165424,10.022480622630209 L 372.9731819157972,15.164766659203146 L 372.22149586909995,12.260465006963722 A 655.1360034907422 655.1360034907422 0 0 1 243.7664390683767,32.185684419700465"/><text text-anchor="middle" pointer-events="none" font-size="8px" fill="#000000" x="205.27445563718595" y="35.6529766550791" transform="rotate(180 205.27445563718595 32.6529766550791)" font-family="sans-serif">IS_CONCOMITANT</text></g><g class="relationship" transform="translate(-140.10018204682277 248.1989136102124) rotate(225.81105522967215)"><path class="outline" fill="#A5ABB6" stroke="none" d="M 40 0.5 L 115.39035936837283 0.5 L 115.39035936837283 -0.5 L 40 -0.5 Z M 173.40207811837283 0.5 L 248.79243748674565 0.5 L 248.79243748674565 3.5 L 255.79243748674565 0 L 248.79243748674565 -3.5 L 248.79243748674565 -0.5 L 173.40207811837283 -0.5 Z"/><text text-anchor="middle" pointer-events="none" font-size="8px" fill="#000000" x="144.39621874337283" y="3" transform="rotate(180 144.39621874337283 0)" font-family="sans-serif">PRESCRIBED</text></g><g class="relationship" transform="translate(70.97543478450234 19.10464753005325) rotate(537.6672047833756)"><path class="outline" fill="#A5ABB6" stroke="none" d="M 38.50762352901147,-10.835724717245364 L 38.766442574113995,-9.869798890956295 A 654.1360034907422 654.1360034907422 0 0 1 150.00867363665344,-29.577138739006955 L 149.91991438105785,-30.57319184730295 A 655.1360034907422 655.1360034907422 0 0 0 38.50762352901147,-10.835724717245364 Z M 260.6447373218829,-31.045914527992068 L 260.56448613941546,-30.049139855504563 A 654.1360034907422 654.1360034907422 0 0 1 371.97093385353423,-11.292364456217248 L 371.21924780683696,-8.388062803977824 L 378.8729187165424,-10.022480622630209 L 372.9731819157972,-15.164766659203146 L 372.22149586909995,-12.260465006963722 A 655.1360034907422 655.1360034907422 0 0 0 260.6447373218829,-31.045914527992068"/><text text-anchor="middle" pointer-events="none" font-size="8px" fill="#000000" x="205.27445563718575" y="-29.6529766550791" transform="rotate(180 205.27445563718575 -32.6529766550791)" font-family="sans-serif">IS_SECONDARY_SUSPECT</text></g><g class="relationship" transform="translate(70.97543478450234 19.10464753005325) rotate(537.6672047833756)"><path class="outline" fill="#A5ABB6" stroke="none" d="M 27.93071785686863,-28.63782463805517 L 28.637824638055175,-27.930717856868625 A 253.75442366090707 253.75442366090707 0 0 1 157.26412658336722,-97.1156998360126 L 157.06391264798657,-98.09545203941886 A 254.75442366090707 254.75442366090707 0 0 0 27.93071785686863,-28.63782463805517 Z M 253.213908429307,-99.22176118221913 L 253.03670008326222,-98.23758782244349 A 253.75442366090707 253.75442366090707 0 0 1 383.2483617466799,-32.08465553344581 L 381.17731532879355,-29.914225452802786 L 388.65787300449466,-27.613952238484803 L 386.0097569705284,-34.9785623076365 L 383.938710552642,-32.80813222699348 A 254.75442366090707 254.75442366090707 0 0 0 253.213908429307,-99.22176118221913"/><text text-anchor="middle" pointer-events="none" font-size="8px" fill="#000000" x="205.09114497108052" y="-99.7362252196589" transform="rotate(180 205.09114497108052 -102.7362252196589)" font-family="sans-serif">IS_PRIMARY_SUSPECT</text></g><g class="relationship" transform="translate(70.97543478450234 19.10464753005325) rotate(361.1674173117078)"><path class="outline" fill="#A5ABB6" stroke="none" d="M 40 0.5 L 70.79347264747348 0.5 L 70.79347264747348 -0.5 L 40 -0.5 Z M 136.2192538974735 0.5 L 167.01272654494696 0.5 L 167.01272654494696 3.5 L 174.01272654494696 0 L 167.01272654494696 -3.5 L 167.01272654494696 -0.5 L 136.2192538974735 -0.5 Z"/><text text-anchor="middle" pointer-events="none" font-size="8px" fill="#000000" x="103.50636327247348" y="3" font-family="sans-serif">REPORTED_BY</text></g><g class="relationship" transform="translate(70.97543478450234 19.10464753005325) rotate(274.58380643047224)"><path class="outline" fill="#A5ABB6" stroke="none" d="M 40 0.5 L 51.12150333615206 0.5 L 51.12150333615206 -0.5 L 40 -0.5 Z M 114.03165958615206 0.5 L 125.15316292230412 0.5 L 125.15316292230412 3.5 L 132.15316292230412 0 L 125.15316292230412 -3.5 L 125.15316292230412 -0.5 L 114.03165958615206 -0.5 Z"/><text text-anchor="middle" pointer-events="none" font-size="8px" fill="#000000" x="82.57658146115206" y="3" font-family="sans-serif">FALLS_UNDER</text></g><g class="relationship" transform="translate(122.79357895216708 211.59478598526238) rotate(254.9332114644219)"><path class="outline" fill="#A5ABB6" stroke="none" d="M 40 0.5 L 67.16752078338614 0.5 L 67.16752078338614 -0.5 L 40 -0.5 Z M 125.17533328338614 0.5 L 152.34285406677228 0.5 L 152.34285406677228 3.5 L 159.34285406677228 0 L 152.34285406677228 -3.5 L 152.34285406677228 -0.5 L 125.17533328338614 -0.5 Z"/><text text-anchor="middle" pointer-events="none" font-size="8px" fill="#000000" x="96.17142703338614" y="3" transform="rotate(180 96.17142703338614 0)" font-family="sans-serif">REGISTERED</text></g></g><g class="layer nodes"><g class="node" aria-label="graph-node-1" transform="translate(-346.27542693184097,36.10239201932656)"><circle class="outline" cx="0" cy="0" r="40" fill="#4C8EDA" stroke="#2870c2" stroke-width="2px"/><text class="caption" text-anchor="middle" pointer-events="none" x="0" y="5" font-size="10px" fill="#FFFFFF" font-family="sans-serif"> Drug</text></g><g class="node" aria-label="graph-node-6" transform="translate(-140.10018204682277,248.1989136102124)"><circle class="outline" cx="0" cy="0" r="40" fill="#ECB5C9" stroke="#da7298" stroke-width="2px"/><text class="caption" text-anchor="middle" pointer-events="none" x="0" y="5" font-size="10px" fill="#2A2C34" font-family="sans-serif"> Therapy</text></g><g class="node" aria-label="graph-node-4" transform="translate(284.9437389750033,23.46491415532705)"><circle class="outline" cx="0" cy="0" r="40" fill="#8DCC93" stroke="#5db665" stroke-width="2px"/><text class="caption" text-anchor="middle" pointer-events="none" x="0" y="5" font-size="10px" fill="#2A2C34" font-family="sans-serif"> ReportSource</text></g><g class="node" aria-label="graph-node-8" transform="translate(84.7334336074417,-152.49788442254174)"><circle class="outline" cx="0" cy="0" r="40" fill="#FFC454" stroke="#d7a013" stroke-width="2px"/><text class="caption" text-anchor="middle" pointer-events="none" x="0" y="5" font-size="10px" fill="#2A2C34" font-family="sans-serif"> AgeGroup</text></g><g class="node" aria-label="graph-node-5" transform="translate(238.3815014829738,-114.74681004865616)"><circle class="outline" cx="0" cy="0" r="40" fill="#DA7194" stroke="#cc3c6c" stroke-width="2px"/><text class="caption" text-anchor="middle" pointer-events="none" x="0" y="5" font-size="10px" fill="#FFFFFF" font-family="sans-serif"> Outcome</text></g><g class="node" aria-label="graph-node-7" transform="translate(122.79357895216708,211.59478598526238)"><circle class="outline" cx="0" cy="0" r="40" fill="#F16667" stroke="#eb2728" stroke-width="2px"/><text class="caption" text-anchor="middle" pointer-events="none" x="0" y="5" font-size="10px" fill="#FFFFFF" font-family="sans-serif"> Manufacturer</text></g><g class="node" aria-label="graph-node-3" transform="translate(247.59128981721025,154.43442229899642)"><circle class="outline" cx="0" cy="0" r="40" fill="#569480" stroke="#447666" stroke-width="2px"/><text class="caption" text-anchor="middle" pointer-events="none" x="0" y="5" font-size="10px" fill="#FFFFFF" font-family="sans-serif"> Reaction</text></g><g class="node" aria-label="graph-node-2" transform="translate(70.97543478450234,19.10464753005325)"><circle class="outline" cx="0" cy="0" r="40" fill="#D9C8AE" stroke="#c0a378" stroke-width="2px"/><text class="caption" text-anchor="middle" pointer-events="none" x="0" y="5" font-size="10px" fill="#2A2C34" font-family="sans-serif"> Case</text></g></g></svg>